    <svg xmlns="http://www.w3.org/2000/svg" width="65.436" height="65.436" viewBox="0 0 65.436 65.436">
    <g id="Group_125" data-name="Group 125" transform="translate(-3712 -2304)">
    <g id="facebook" transform="translate(3712 2304)">
    <path id="Path_174" data-name="Path 174" d="M61.823,0H3.609A3.611,3.611,0,0,0,0,3.612V61.827a3.611,3.611,0,0,0,3.612,3.609H61.823a3.611,3.611,0,0,0,3.612-3.61h0V3.609A3.611,3.611,0,0,0,61.823,0Zm0,0" transform="translate(0 0)" fill="#4267b2"/>
    <path id="Path_175" data-name="Path 175" d="M225.723,132.877V107.572h8.531l1.278-9.9h-9.809V91.359c0-2.861.794-4.811,4.9-4.811h5.2V77.714a69.9,69.9,0,0,0-7.62-.389c-7.54,0-12.7,4.6-12.7,13.054v7.289H207v9.9h8.5v25.305Zm0,0" transform="translate(-180.545 -67.442)" fill="#fff"/>
    </g>
    </g>
    </svg>