<svg xmlns="http://www.w3.org/2000/svg" width="17.88" height="11.915"
                                viewBox="0 0 17.88 11.915">
                                <g id="Group_3397" data-name="Group 3397"
                                    transform="translate(1740.93 2002.088)">
                                    <path id="Path_2266" data-name="Path 2266"
                                        d="M-1724-2002.088h-16.066a.841.841,0,0,0-.786.567c0,.01,0,.022-.008.034a1.119,1.119,0,0,1-.071.226v.31l.007.018c.224.658.411.809,1,.809h15.932c.052,0,.1,0,.143,0a.847.847,0,0,0,.7-.517,1.123,1.123,0,0,0-.009-.927A.815.815,0,0,0-1724-2002.088Z"
                                        transform="translate(0)" fill="#222" />
                                    <path id="Path_2267" data-name="Path 2267"
                                        d="M-1694.774-1914.893h-12.232a.433.433,0,0,0-.047,0c-.241.026-.4.2-.515.556,0,.01,0,.022-.006.034a1.24,1.24,0,0,1-.051.219v.339a1.191,1.191,0,0,1,.054.231c0,.011,0,.022,0,.031.126.392.3.552.585.552h12.25a.6.6,0,0,0,.487-.407,1.531,1.531,0,0,0,.01-1.118C-1694.351-1914.766-1694.508-1914.893-1694.774-1914.893Z"
                                        transform="translate(-31.112 -82.376)" fill="#222" />
                                    <path id="Path_2268" data-name="Path 2268"
                                        d="M-1659.72-1822.025h-5.212c-.636,0-1.293,0-1.939,0-.293,0-.483.176-.615.568,0,.01,0,.021-.006.033a1.411,1.411,0,0,1-.052.223v.311a1.415,1.415,0,0,1,.052.223c0,.012,0,.024.006.034.132.393.326.569.628.569h7.193a.65.65,0,0,0,.525-.44,1.5,1.5,0,0,0,.061-.883C-1659.166-1821.792-1659.4-1822.025-1659.72-1822.025Z"
                                        transform="translate(-68.698 -170.11)" fill="#222" />
                                </g>
                            </svg>