<svg xmlns="http://www.w3.org/2000/svg" width="22.598" height="22.598"
                    viewBox="0 0 22.598 22.598">
                    <path id="smile"
                        d="M11.3,22.6A11.3,11.3,0,0,1,3.309,3.309,11.3,11.3,0,0,1,19.288,19.288,11.225,11.225,0,0,1,11.3,22.6Zm0-20.832A9.533,9.533,0,1,0,20.832,11.3,9.544,9.544,0,0,0,11.3,1.765Zm4.137,11.484a.883.883,0,0,0-1.219.271,3.885,3.885,0,0,1-2.963,1.71,3.885,3.885,0,0,1-2.963-1.71.883.883,0,0,0-1.489.948A5.675,5.675,0,0,0,11.255,17a5.675,5.675,0,0,0,4.452-2.527.883.883,0,0,0-.271-1.219ZM7.415,7.282a1.1,1.1,0,1,1-1.1,1.1A1.1,1.1,0,0,1,7.415,7.282Zm6.62,1.1a1.1,1.1,0,1,0,1.1-1.1A1.1,1.1,0,0,0,14.035,8.386Z"
                        fill="#707070" />
                    </svg>