<svg xmlns="http://www.w3.org/2000/svg" width="58.54" height="66.302" viewBox="0 0 58.54 66.302">
    <g id="tik-tok" transform="translate(-29.799 -1)">
      <g id="Group_126" data-name="Group 126" transform="translate(37.471 3.991)">
        <path id="Path_176" data-name="Path 176" d="M118.759,217.03a9.332,9.332,0,0,0-4.85,17.385,9.188,9.188,0,0,1-1.5-4.9,9.407,9.407,0,0,1,9.466-9.492,9.776,9.776,0,0,1,2.978.468V210.021a20.583,20.583,0,0,0-2.978-.221h-.143v7.7A9.776,9.776,0,0,0,118.759,217.03Z" transform="translate(-106.627 -185.641)" fill="#f00044"/>
        <path id="Path_177" data-name="Path 177" d="M338.983,24H336.2a15.989,15.989,0,0,0,6.046,9.635A16.106,16.106,0,0,1,338.983,24Z" transform="translate(-304.031 -24)" fill="#f00044"/>
        <path id="Path_178" data-name="Path 178" d="M139.667,144.586a16.2,16.2,0,0,1-2.991-.286v7.5a25.792,25.792,0,0,1-10.194-2.067,26.633,26.633,0,0,1-5.8-3.381l.052,23.132a19.352,19.352,0,0,1-5.8,13.757,19.725,19.725,0,0,1-11.026,5.513,20.583,20.583,0,0,1-2.978.221A19.749,19.749,0,0,1,88.8,184.869a17.616,17.616,0,0,0,1.261,1.365,19.816,19.816,0,0,0,14,5.734,20.583,20.583,0,0,0,2.978-.221,19.725,19.725,0,0,0,11.026-5.513,19.352,19.352,0,0,0,5.8-13.757l-.2-23.132a25.543,25.543,0,0,0,5.8,3.381,26.117,26.117,0,0,0,10.194,2.067" transform="translate(-88.8 -128.658)" fill="#f00044"/>
      </g>
      <path id="Path_179" data-name="Path 179" d="M38.694,195.551a19.788,19.788,0,0,1,13.887-5.76v-2.77A20.583,20.583,0,0,0,49.6,186.8a19.769,19.769,0,0,0-14.03,5.76,19.433,19.433,0,0,0,.026,27.67,19.8,19.8,0,0,0,1.859,1.625,19.368,19.368,0,0,1-4.551-12.47A19.6,19.6,0,0,1,38.694,195.551Z" transform="translate(0 -161.641)" fill="#08fff9"/>
      <path id="Path_180" data-name="Path 180" d="M392.448,104.107v-2.783h-.026A15.869,15.869,0,0,1,382.8,98.1,15.885,15.885,0,0,0,392.448,104.107Z" transform="translate(-307.1 -84.474)" fill="#08fff9"/>
      <path id="Path_181" data-name="Path 181" d="M152.238,57.069a9.77,9.77,0,0,0,3.511-.455,9.371,9.371,0,0,0,6.488-8.881l.013-15.473V3.991h7.438A16.2,16.2,0,0,1,169.375,1H159.129V29.255l-.013,15.473a9.371,9.371,0,0,1-6.488,8.881,9.228,9.228,0,0,1-3.511.455,9.54,9.54,0,0,1-4.317-1.313,9.486,9.486,0,0,0,7.438,4.317Z" transform="translate(-100.047)" fill="#08fff9"/>
      <path id="Path_182" data-name="Path 182" d="M73.46,84.1a19.725,19.725,0,0,0,11.026-5.513,19.352,19.352,0,0,0,5.8-13.757L90.234,41.7a25.543,25.543,0,0,0,5.8,3.381,26.117,26.117,0,0,0,10.194,2.067v-7.5a15.885,15.885,0,0,1-9.648-6.007A15.93,15.93,0,0,1,90.533,24H83.082V52.255l-.013,15.473a9.371,9.371,0,0,1-6.488,8.881,9.228,9.228,0,0,1-3.511.455,9.487,9.487,0,0,1-7.438-4.3,9.332,9.332,0,0,1,4.85-17.385,9.776,9.776,0,0,1,2.978.468v-7.7a19.788,19.788,0,0,0-13.887,5.76A19.476,19.476,0,0,0,53.8,67.729,19.227,19.227,0,0,0,58.351,80.2a19.777,19.777,0,0,0,12.132,4.109A18.889,18.889,0,0,0,73.46,84.1Z" transform="translate(-20.879 -20.009)"/>
    </g>
  </svg>